<?xml version="1.0" encoding="UTF-8"?>
<svg width="61px" height="60px" viewBox="0 0 61 60" version="1.1" xmlns="http://www.w3.org/2000/svg" xmlns:xlink="http://www.w3.org/1999/xlink">
    <title>Shape 4</title>
    <g id="Općina-Tinjan-Web" stroke="none" stroke-width="1" fill="none" fill-rule="evenodd">
        <g id="01---Naslovnica" transform="translate(-962.000000, -645.000000)" fill="#39B872" fill-rule="nonzero">
            <g id="Shape-3" transform="translate(962.500000, 645.000000)">
                <path d="M59.9547505,8.94733846 C59.8536323,8.59831884 59.5701445,8.33227651 59.215414,8.2534996 L53.1158879,6.87549012 L51.7378784,0.775964056 C51.6581234,0.422187421 51.3921499,0.139852988 51.0437581,0.0391459752 C50.6953663,-0.0615610377 50.3197755,0.0353212234 50.0635656,0.291983013 L43.0483997,7.30828633 C30.7634019,-0.104805048 14.8780993,2.81616321 6.03373282,14.1144939 C-2.81063369,25.4128247 -1.83219004,41.534783 8.31362427,51.6805973 C18.4594386,61.8264117 34.5813969,62.8048553 45.8797277,53.9604888 C57.1780584,45.1161223 60.0990267,29.2308197 52.6859353,16.9458219 L59.7039448,9.9278124 C59.9597665,9.67099479 60.0558306,9.29545175 59.9547505,8.94733846 L59.9547505,8.94733846 Z M54.7759966,31.6136892 C54.7743341,43.560246 46.7479735,54.0159025 35.2076274,57.1046943 C23.6672812,60.193486 11.4912228,55.1450388 5.52226348,44.7965245 C-0.446695883,34.4480103 1.28015959,21.3804478 9.73235607,12.9376641 C18.1845525,4.49488027 31.254031,2.78258649 41.5958879,8.76307306 L38.3740869,11.984874 C38.3464065,12.0163849 38.3207621,12.0496276 38.2973097,12.0844001 C28.6870268,7.19171655 16.9458109,10.0114994 10.6055756,18.7348764 C4.2653402,27.4582534 5.20759229,39.4965043 12.8278833,47.1271698 C20.4481743,54.7578353 32.4851321,55.7164646 41.2171269,49.3881032 C49.9491217,43.0597419 52.784876,31.3223733 47.9052718,21.7054427 C47.9418564,21.6796038 47.9766296,21.6512912 48.0093476,21.6207034 L51.2311486,18.3989024 C53.5577675,22.4140158 54.7807537,26.9731861 54.7759966,31.6136892 L54.7759966,31.6136892 Z M45.543376,21.5393764 C50.5999802,30.1715412 48.4558693,41.2164449 40.5367885,47.3296825 C32.6177077,53.4429202 21.3898176,52.7207071 14.3192014,45.6432851 C7.24858518,38.5658632 6.53717453,27.3372834 12.6580281,19.4240877 C18.7788817,11.510892 29.8258431,9.37740814 38.4531391,14.4423148 L39.5012907,19.0853479 L38.4957931,20.0908456 C32.2624526,14.6171417 22.8103561,15.0768494 17.1376113,21.1296119 C11.4648665,27.1823744 11.618156,36.6444018 17.4839879,42.5102337 C23.3498198,48.3760656 32.8118472,48.5293551 38.8646097,42.8566103 C44.9173723,37.1838655 45.3770799,27.731769 39.903376,21.4984285 L40.9088737,20.4929309 L45.543376,21.5393764 Z M32.660183,31.6136892 C32.6673867,33.5705137 31.351168,35.284914 29.4588873,35.7834001 C27.5666067,36.2818861 25.5765751,35.4384557 24.6187949,33.7320351 C23.6610147,32.0256144 23.9775836,29.8875348 25.3887438,28.5318647 C26.799904,27.1761947 28.9489571,26.9456064 30.6156035,27.9710351 L27.6764566,30.9101821 C27.417783,31.160119 27.3140963,31.530181 27.4052484,31.8781347 C27.4964005,32.2260884 27.7682061,32.4977842 28.1161966,32.5887957 C28.4641871,32.6798071 28.8342072,32.5759708 29.0840396,32.3171963 L32.0231865,29.3780494 C32.4393111,30.049514 32.6598987,30.823737 32.660183,31.6136892 L32.660183,31.6136892 Z M32.0482102,26.5384285 C29.3890347,24.6122892 25.6960759,25.0532493 23.5651798,27.5513502 C21.4342836,30.0494512 21.5810777,33.7657452 23.902378,36.0879838 C26.2236782,38.4102223 29.9399127,38.5585183 32.4388746,36.4286318 C34.9378364,34.2987453 35.3802889,30.6059651 33.4552244,27.9460114 L38.4929495,22.9082863 C43.1841021,28.3583262 42.7247272,36.5425886 37.4531508,41.43343 C32.1815743,46.3242713 23.9858822,46.169971 18.9021361,41.0841699 C13.8183899,35.9983689 13.6674017,27.8026151 18.560373,22.5330156 C23.4533442,17.2634161 31.6377917,16.8073487 37.0859353,21.5007034 L32.0482102,26.5384285 Z M50.7272623,16.0876228 L46.9919069,19.8224096 L46.4317173,19.6961536 L46.4101059,19.6910351 L41.4252718,18.5689498 L40.1689685,13.0051584 L50.1966462,2.97577448 L51.3153192,7.9270541 C51.3999746,8.30168994 51.6925317,8.594247 52.0671675,8.67890244 L57.0184471,9.79757543 L50.7272623,16.0876228 Z" id="Shape"></path>
            </g>
        </g>
    </g>
</svg>