<?xml version="1.0" encoding="UTF-8"?>
<svg width="15px" height="10px" viewBox="0 0 15 10" version="1.1" xmlns="http://www.w3.org/2000/svg" xmlns:xlink="http://www.w3.org/1999/xlink">
    <title>Path</title>
    <g id="Općina-Tinjan-Web" stroke="none" stroke-width="1" fill="none" fill-rule="evenodd">
        <g id="13---Novosti---hub" transform="translate(-256.000000, -1452.000000)" fill="#132244" fill-rule="nonzero">
            <g id="Group-9" transform="translate(115.000000, 1134.000000)">
                <path d="M145.640147,318.1504 C145.84068,317.949867 146.156384,317.949867 146.356917,318.1504 C146.550675,318.344158 146.550675,318.666637 146.356917,318.859943 L142.722483,322.494377 L154.715618,322.494377 C154.99519,322.494377 155.224629,322.716589 155.224629,322.996161 C155.224629,323.275733 154.99519,323.505171 154.715618,323.505171 L142.722483,323.505171 L146.356917,327.13283 C146.550675,327.333363 146.550675,327.656294 146.356917,327.8496 C146.156384,328.050133 145.84068,328.050133 145.640147,327.8496 L141.145319,323.354772 C140.95156,323.161014 140.95156,322.838535 141.145319,322.645228 L145.640147,318.1504 Z" id="Path" transform="translate(148.112314, 323.000000) scale(-1, 1) translate(-148.112314, -323.000000) "></path>
            </g>
        </g>
    </g>
</svg>