<?xml version="1.0" encoding="UTF-8"?>
<svg width="61px" height="60px" viewBox="0 0 61 60" version="1.1" xmlns="http://www.w3.org/2000/svg" xmlns:xlink="http://www.w3.org/1999/xlink">
    <title>Group 2</title>
    <g id="Općina-Tinjan-Web" stroke="none" stroke-width="1" fill="none" fill-rule="evenodd">
        <g id="01---Naslovnica" transform="translate(-1151.000000, -645.000000)" fill="#39B872" fill-rule="nonzero">
            <g id="Group-2" transform="translate(1151.558480, 645.000000)">
                <path d="M26.9474402,34.4318951 C26.9474402,34.9831032 27.3942827,35.4299458 27.9454909,35.4299458 C28.496699,35.4299458 28.9435415,34.9831032 28.9435415,34.4318951 C28.9435415,31.1303435 25.8895065,28.4016729 21.9571868,28.0004565 L21.9571868,26.946515 C21.9571868,26.3953069 21.5103442,25.9484643 20.9591361,25.9484643 C20.407928,25.9484643 19.9610854,26.3953069 19.9610854,26.946515 L19.9610854,28.0004565 C16.0287657,28.3996768 12.9747306,31.1303435 12.9747306,34.4318951 C12.9747306,37.7334468 16.0287657,40.4621173 19.9610854,40.8633337 L19.9610854,49.8338132 C17.1336078,49.4765111 14.970832,47.6311154 14.970832,45.4104526 C14.970832,44.8592445 14.5239894,44.4124019 13.9727813,44.4124019 C13.4215732,44.4124019 12.9747306,44.8592445 12.9747306,45.4104526 C12.9747306,48.7120043 16.0287657,51.4406748 19.9610854,51.8418912 L19.9610854,52.8958327 C19.9610854,53.4470409 20.407928,53.8938834 20.9591361,53.8938834 C21.5103442,53.8938834 21.9571868,53.4470409 21.9571868,52.8958327 L21.9571868,51.8418912 C25.8895065,51.4426709 28.9435415,48.7120043 28.9435415,45.4104526 C28.9435415,42.108901 25.8895065,39.3802304 21.9571868,38.979014 L21.9571868,30.0085345 C24.7846644,30.3658366 26.9474402,32.2112323 26.9474402,34.4318951 Z M14.970832,34.4318951 C14.970832,32.2112323 17.1336078,30.3658366 19.9610854,30.0085345 L19.9610854,38.8552557 C17.1336078,38.4979536 14.970832,36.6525579 14.970832,34.4318951 Z M26.9474402,45.4104526 C26.9474402,47.6311154 24.7846644,49.4765111 21.9571868,49.8338132 L21.9571868,40.987092 C24.7846644,41.3443941 26.9474402,43.1897899 26.9474402,45.4104526 Z" id="Shape"></path>
                <path d="M3.59305421,30.1133298 C3.09310703,29.881304 2.49972376,30.0984608 2.26764291,30.5983824 C0.765496588,33.8312291 -0.00858160034,37.3544432 -3.32417654e-15,40.9192245 C-3.32417654e-15,53.5016495 7.05129983,59.8821875 20.9591361,59.8821875 C23.7693621,59.9263545 26.5733189,59.603247 29.2998456,58.9210647 C29.8325883,58.7794042 30.149623,58.2326924 30.0079626,57.6999497 C29.8663021,57.167207 29.3195903,56.8501723 28.7868476,56.9918327 C26.2267066,57.6240913 23.5959119,57.9246386 20.9591361,57.8860861 C8.19905811,57.8860861 1.99617312,52.3359263 1.99617312,40.9192245 C1.97821611,37.6433135 2.68973523,34.4044866 4.0791049,31.4377431 C4.31032905,30.9377856 4.09279149,30.3450293 3.59305421,30.1133298 Z" id="Shape"></path>
                <path d="M56.8889606,24.9504136 L34.9318456,24.9504136 C33.2782212,24.9504136 31.9376936,26.2909412 31.9376936,27.9445657 L31.9376936,56.8880355 C31.9376936,58.5416599 33.2782212,59.8821875 34.9318456,59.8821875 L56.8889606,59.8821875 C58.5425851,59.8821875 59.8831127,58.5416599 59.8831127,56.8880355 L59.8831127,27.9445657 C59.8831127,26.2909412 58.5425851,24.9504136 56.8889606,24.9504136 Z M57.8870113,56.8880355 C57.8870113,57.4392436 57.4401688,57.8860861 56.8889606,57.8860861 L34.9318456,57.8860861 C34.3806375,57.8860861 33.933795,57.4392436 33.933795,56.8880355 L33.933795,27.9445657 C33.933795,27.3933576 34.3806375,26.946515 34.9318456,26.946515 L56.8889606,26.946515 C57.4401688,26.946515 57.8870113,27.3933576 57.8870113,27.9445657 L57.8870113,56.8880355 Z" id="Shape"></path>
                <path d="M38.9240484,37.9250725 L52.8967579,37.9250725 C53.9991743,37.9250725 54.8928593,37.0313875 54.8928593,35.9289711 L54.8928593,31.9367684 C54.8928593,30.8343521 53.9991743,29.940667 52.8967579,29.940667 L38.9240484,29.940667 C37.821632,29.940667 36.927947,30.8343521 36.927947,31.9367684 L36.927947,35.9289711 C36.927947,37.0313875 37.821632,37.9250725 38.9240484,37.9250725 Z M38.9240484,31.9367684 L52.8967579,31.9367684 L52.8967579,35.9289711 L38.9240484,35.9289711 L38.9240484,31.9367684 Z" id="Shape"></path>
                <path d="M40.9201497,40.9192245 L37.9259977,40.9192245 C37.3747896,40.9192245 36.927947,41.3660671 36.927947,41.9172752 C36.927947,42.4684834 37.3747896,42.9153259 37.9259977,42.9153259 L40.9201497,42.9153259 C41.4713579,42.9153259 41.9182004,42.4684834 41.9182004,41.9172752 C41.9182004,41.3660671 41.4713579,40.9192245 40.9201497,40.9192245 Z" id="Shape"></path>
                <path d="M40.9201497,44.9114273 L37.9259977,44.9114273 C37.3747896,44.9114273 36.927947,45.3582698 36.927947,45.909478 C36.927947,46.4606861 37.3747896,46.9075286 37.9259977,46.9075286 L40.9201497,46.9075286 C41.4713579,46.9075286 41.9182004,46.4606861 41.9182004,45.909478 C41.9182004,45.3582698 41.4713579,44.9114273 40.9201497,44.9114273 Z" id="Shape"></path>
                <path d="M40.9201497,48.90363 L37.9259977,48.90363 C37.3747896,48.90363 36.927947,49.3504726 36.927947,49.9016807 C36.927947,50.4528888 37.3747896,50.8997314 37.9259977,50.8997314 L40.9201497,50.8997314 C41.4713579,50.8997314 41.9182004,50.4528888 41.9182004,49.9016807 C41.9182004,49.3504726 41.4713579,48.90363 40.9201497,48.90363 Z" id="Shape"></path>
                <path d="M40.9201497,52.8958327 L37.9259977,52.8958327 C37.3747896,52.8958327 36.927947,53.3426753 36.927947,53.8938834 C36.927947,54.4450915 37.3747896,54.8919341 37.9259977,54.8919341 L40.9201497,54.8919341 C41.4713579,54.8919341 41.9182004,54.4450915 41.9182004,53.8938834 C41.9182004,53.3426753 41.4713579,52.8958327 40.9201497,52.8958327 Z" id="Shape"></path>
                <path d="M47.9065045,40.9192245 L44.9123525,40.9192245 C44.3611443,40.9192245 43.9143018,41.3660671 43.9143018,41.9172752 C43.9143018,42.4684834 44.3611443,42.9153259 44.9123525,42.9153259 L47.9065045,42.9153259 C48.4577126,42.9153259 48.9045552,42.4684834 48.9045552,41.9172752 C48.9045552,41.3660671 48.4577126,40.9192245 47.9065045,40.9192245 Z" id="Shape"></path>
                <path d="M47.9065045,44.9114273 L44.9123525,44.9114273 C44.3611443,44.9114273 43.9143018,45.3582698 43.9143018,45.909478 C43.9143018,46.4606861 44.3611443,46.9075286 44.9123525,46.9075286 L47.9065045,46.9075286 C48.4577126,46.9075286 48.9045552,46.4606861 48.9045552,45.909478 C48.9045552,45.3582698 48.4577126,44.9114273 47.9065045,44.9114273 Z" id="Shape"></path>
                <path d="M47.9065045,48.90363 L44.9123525,48.90363 C44.3611443,48.90363 43.9143018,49.3504726 43.9143018,49.9016807 C43.9143018,50.4528888 44.3611443,50.8997314 44.9123525,50.8997314 L47.9065045,50.8997314 C48.4577126,50.8997314 48.9045552,50.4528888 48.9045552,49.9016807 C48.9045552,49.3504726 48.4577126,48.90363 47.9065045,48.90363 Z" id="Shape"></path>
                <path d="M47.9065045,52.8958327 L44.9123525,52.8958327 C44.3611443,52.8958327 43.9143018,53.3426753 43.9143018,53.8938834 C43.9143018,54.4450915 44.3611443,54.8919341 44.9123525,54.8919341 L47.9065045,54.8919341 C48.4577126,54.8919341 48.9045552,54.4450915 48.9045552,53.8938834 C48.9045552,53.3426753 48.4577126,52.8958327 47.9065045,52.8958327 Z" id="Shape"></path>
                <path d="M54.8928593,40.9192245 L51.8987072,40.9192245 C51.3474991,40.9192245 50.9006566,41.3660671 50.9006566,41.9172752 C50.9006566,42.4684834 51.3474991,42.9153259 51.8987072,42.9153259 L54.8928593,42.9153259 C55.4440674,42.9153259 55.89091,42.4684834 55.89091,41.9172752 C55.89091,41.3660671 55.4440674,40.9192245 54.8928593,40.9192245 Z" id="Shape"></path>
                <path d="M54.8928593,44.9114273 L51.8987072,44.9114273 C51.3474991,44.9114273 50.9006566,45.3582698 50.9006566,45.909478 C50.9006566,46.4606861 51.3474991,46.9075286 51.8987072,46.9075286 L54.8928593,46.9075286 C55.4440674,46.9075286 55.89091,46.4606861 55.89091,45.909478 C55.89091,45.3582698 55.4440674,44.9114273 54.8928593,44.9114273 Z" id="Shape"></path>
                <path d="M54.8928593,48.90363 L51.8987072,48.90363 C51.3474991,48.90363 50.9006566,49.3504726 50.9006566,49.9016807 C50.9006566,50.4528888 51.3474991,50.8997314 51.8987072,50.8997314 L54.8928593,50.8997314 C55.4440674,50.8997314 55.89091,50.4528888 55.89091,49.9016807 C55.89091,49.3504726 55.4440674,48.90363 54.8928593,48.90363 Z" id="Shape"></path>
                <path d="M54.8928593,52.8958327 L51.8987072,52.8958327 C51.3474991,52.8958327 50.9006566,53.3426753 50.9006566,53.8938834 C50.9006566,54.4450915 51.3474991,54.8919341 51.8987072,54.8919341 L54.8928593,54.8919341 C55.4440674,54.8919341 55.89091,54.4450915 55.89091,53.8938834 C55.89091,53.3426753 55.4440674,52.8958327 54.8928593,52.8958327 Z" id="Shape"></path>
                <path d="M6.31274232,1.25968459 C3.68487488,3.66698283 8.30185733,11.0924799 11.0225435,14.9699068 L10.4796039,14.9699068 C9.55247702,14.9665287 8.66243695,15.3337556 8.00743238,15.9899146 C7.35465925,16.6476631 6.98775952,17.5363997 6.98642653,18.4630842 C6.99071814,19.7067701 7.65798511,20.8537541 8.73700743,21.472207 C7.57201328,22.7044389 6.47454931,23.9988067 5.44942848,25.3496339 C5.1187036,25.7906004 5.2080721,26.4161799 5.64903864,26.7469049 C6.09000517,27.0776297 6.71558466,26.9882613 7.04630958,26.5472947 C8.27909981,24.9344597 9.61248621,23.4010654 11.0385123,21.9562616 L31.4386682,21.9562616 C32.6866604,21.9562616 33.8398526,21.2904658 34.4638487,20.2096729 C35.0878448,19.12888 35.0878448,17.7972884 34.4638487,16.7164955 C33.8398526,15.6357026 32.6866604,14.9699068 31.4386682,14.9699068 L30.8957287,14.9699068 C33.6154168,11.0924799 38.2323992,3.66798088 35.6065279,1.25968459 C34.3988866,0.153844433 32.9916351,0.960269384 31.7510581,1.66589122 C30.6229349,2.43848189 29.3093891,2.89665548 27.9454909,2.99329862 C26.862772,2.99101172 25.8306173,2.53485074 25.1000484,1.73575476 C24.0078925,0.625365812 22.5156258,0 20.958138,0 C19.4006503,0 17.9083836,0.625365812 16.8162277,1.73575476 C16.0844855,2.53612994 15.0502517,2.99240959 13.965795,2.99329862 C12.6026158,2.89765755 11.2897801,2.43937109 10.1632219,1.66589122 C8.92364291,0.958273282 7.5173895,0.154842483 6.31274232,1.25968459 Z M32.4995961,17.4031544 C32.9290183,17.8314887 33.0575645,18.4765982 32.825124,19.036817 C32.5926835,19.5970359 32.0451924,19.9616506 31.4386682,19.9601648 L10.4796039,19.9601648 C9.65279167,19.9601648 8.9825279,19.2898964 8.9825279,18.4630842 C8.9825279,17.636272 9.65279167,16.9660082 10.4796039,16.9660082 L31.4386682,16.9660082 C31.8361189,16.9661254 32.2174325,17.1232424 32.4995961,17.4031544 Z M13.965795,4.98939999 C15.523898,4.98917946 17.0166125,4.36310958 18.1087033,3.25179375 C18.8376313,2.45104616 19.8703123,1.99463077 20.9531478,1.99463077 C22.0359833,1.99463077 23.0686642,2.45104616 23.7975922,3.25179375 C24.8911531,4.3639649 26.3857474,4.99006905 27.9454909,4.98939999 C29.6591314,4.89936633 31.3169692,4.34985632 32.7451166,3.3985072 C33.2007766,3.07688653 33.7162743,2.84985038 34.2611556,2.73081129 C35.2851556,3.66897894 32.5784421,9.32692825 28.440524,14.9699068 L25.9493895,14.9699068 L25.9493895,9.9796534 C25.9493895,9.42844523 25.5025469,8.98160272 24.9513388,8.98160272 C24.4001307,8.98160272 23.9532881,9.42844523 23.9532881,9.9796534 L23.9532881,14.9699068 L17.964984,14.9699068 L17.964984,9.9796534 C17.964984,9.42844523 17.5181415,8.98160272 16.9669334,8.98160272 C16.4157252,8.98160272 15.9688827,9.42844523 15.9688827,9.9796534 L15.9688827,14.9699068 L13.4817404,14.9699068 C9.34382225,9.32692825 6.6371088,3.66897894 7.67508151,2.71584053 C8.20866936,2.8583606 8.71467134,3.08909751 9.17215753,3.3985072 C10.598144,4.34973034 12.2540294,4.89927884 13.965795,4.98939999 Z" id="Shape"></path>
            </g>
        </g>
    </g>
</svg>