<?xml version="1.0" encoding="UTF-8"?>
<svg width="23px" height="20px" viewBox="0 0 23 20" version="1.1" xmlns="http://www.w3.org/2000/svg" xmlns:xlink="http://www.w3.org/1999/xlink">
    <title>Group 11</title>
    <g id="Općina-Tinjan-Web" stroke="none" stroke-width="1" fill="none" fill-rule="evenodd">
        <g id="14---Novosti---single" transform="translate(-115.000000, -318.000000)" fill="#39B872" fill-rule="nonzero">
            <g id="Group-11" transform="translate(115.000000, 318.000000)">
                <path d="M6.23376623,9.6969697 L4.84848485,9.6969697 C4.48987013,9.6969697 4.1991342,9.98770563 4.1991342,10.3463203 C4.1991342,10.7049351 4.48987013,10.995671 4.84848485,10.995671 L6.23376623,10.995671 C6.59238095,10.995671 6.88311688,10.7049351 6.88311688,10.3463203 C6.88311688,9.98770563 6.59238095,9.6969697 6.23376623,9.6969697 Z" id="Path"></path>
                <path d="M6.23376623,12.4675325 L4.84848485,12.4675325 C4.48987013,12.4675325 4.1991342,12.7582684 4.1991342,13.1168831 C4.1991342,13.4754978 4.48987013,13.7662338 4.84848485,13.7662338 L6.23376623,13.7662338 C6.59238095,13.7662338 6.88311688,13.4754978 6.88311688,13.1168831 C6.88311688,12.7582684 6.59238095,12.4675325 6.23376623,12.4675325 Z" id="Path"></path>
                <path d="M6.23376623,15.2380952 L4.84848485,15.2380952 C4.48987013,15.2380952 4.1991342,15.5288312 4.1991342,15.8874459 C4.1991342,16.2460606 4.48987013,16.5367965 4.84848485,16.5367965 L6.23376623,16.5367965 C6.59238095,16.5367965 6.88311688,16.2460606 6.88311688,15.8874459 C6.88311688,15.5288312 6.59238095,15.2380952 6.23376623,15.2380952 Z" id="Path"></path>
                <path d="M11.7748918,9.6969697 L10.3896104,9.6969697 C10.0309957,9.6969697 9.74025974,9.98770563 9.74025974,10.3463203 C9.74025974,10.7049351 10.0309957,10.995671 10.3896104,10.995671 L11.7748918,10.995671 C12.1335065,10.995671 12.4242424,10.7049351 12.4242424,10.3463203 C12.4242424,9.98770563 12.1335065,9.6969697 11.7748918,9.6969697 Z" id="Path"></path>
                <path d="M11.7748918,12.4675325 L10.3896104,12.4675325 C10.0309957,12.4675325 9.74025974,12.7582684 9.74025974,13.1168831 C9.74025974,13.4754978 10.0309957,13.7662338 10.3896104,13.7662338 L11.7748918,13.7662338 C12.1335065,13.7662338 12.4242424,13.4754978 12.4242424,13.1168831 C12.4242424,12.7582684 12.1335065,12.4675325 11.7748918,12.4675325 Z" id="Path"></path>
                <path d="M11.7748918,15.2380952 L10.3896104,15.2380952 C10.0309957,15.2380952 9.74025974,15.5288312 9.74025974,15.8874459 C9.74025974,16.2460606 10.0309957,16.5367965 10.3896104,16.5367965 L11.7748918,16.5367965 C12.1335065,16.5367965 12.4242424,16.2460606 12.4242424,15.8874459 C12.4242424,15.5288312 12.1335065,15.2380952 11.7748918,15.2380952 Z" id="Path"></path>
                <path d="M17.3160173,9.6969697 L15.9307359,9.6969697 C15.5721212,9.6969697 15.2813853,9.98770563 15.2813853,10.3463203 C15.2813853,10.7049351 15.5721212,10.995671 15.9307359,10.995671 L17.3160173,10.995671 C17.674632,10.995671 17.965368,10.7049351 17.965368,10.3463203 C17.965368,9.98770563 17.674632,9.6969697 17.3160173,9.6969697 Z" id="Path"></path>
                <path d="M17.3160173,12.4675325 L15.9307359,12.4675325 C15.5721212,12.4675325 15.2813853,12.7582684 15.2813853,13.1168831 C15.2813853,13.4754978 15.5721212,13.7662338 15.9307359,13.7662338 L17.3160173,13.7662338 C17.674632,13.7662338 17.965368,13.4754978 17.965368,13.1168831 C17.965368,12.7582684 17.674632,12.4675325 17.3160173,12.4675325 Z" id="Path"></path>
                <path d="M17.3160173,15.2380952 L15.9307359,15.2380952 C15.5721212,15.2380952 15.2813853,15.5288312 15.2813853,15.8874459 C15.2813853,16.2460606 15.5721212,16.5367965 15.9307359,16.5367965 L17.3160173,16.5367965 C17.674632,16.5367965 17.965368,16.2460606 17.965368,15.8874459 C17.965368,15.5288312 17.674632,15.2380952 17.3160173,15.2380952 Z" id="Path"></path>
                <path d="M20.2164502,1.73160173 L18.6580087,1.73160173 L18.6580087,0.649350649 C18.6580087,0.290735931 18.3672727,0 18.008658,0 C17.6500433,0 17.3593074,0.290735931 17.3593074,0.649350649 L17.3593074,1.73160173 L11.7316017,1.73160173 L11.7316017,0.649350649 C11.7316017,0.290735931 11.4408658,0 11.0822511,0 C10.7236364,0 10.4329004,0.290735931 10.4329004,0.649350649 L10.4329004,1.73160173 L4.80519481,1.73160173 L4.80519481,0.649350649 C4.80519481,0.290735931 4.51445887,0 4.15584416,0 C3.79722944,0 3.50649351,0.290735931 3.50649351,0.649350649 L3.50649351,1.73160173 L1.94805195,1.73160173 C0.873896104,1.73160173 -2.04281037e-13,2.60549784 -2.04281037e-13,3.67965368 L-2.04281037e-13,18.0519481 C-2.04281037e-13,19.1261039 0.873896104,20 1.94805195,20 L20.2164502,20 C21.2906061,20 22.1645022,19.1261039 22.1645022,18.0519481 C22.1645022,17.6328139 22.1645022,4.04437229 22.1645022,3.67965368 C22.1645022,2.60549784 21.2906061,1.73160173 20.2164502,1.73160173 Z M1.2987013,3.67965368 C1.2987013,3.32160173 1.59,3.03030303 1.94805195,3.03030303 L3.50649351,3.03030303 L3.50649351,4.11255411 C3.50649351,4.47116883 3.79722944,4.76190476 4.15584416,4.76190476 C4.51445887,4.76190476 4.80519481,4.47116883 4.80519481,4.11255411 L4.80519481,3.03030303 L10.4329004,3.03030303 L10.4329004,4.11255411 C10.4329004,4.47116883 10.7236364,4.76190476 11.0822511,4.76190476 C11.4408658,4.76190476 11.7316017,4.47116883 11.7316017,4.11255411 L11.7316017,3.03030303 L17.3593074,3.03030303 L17.3593074,4.11255411 C17.3593074,4.47116883 17.6500433,4.76190476 18.008658,4.76190476 C18.3672727,4.76190476 18.6580087,4.47116883 18.6580087,4.11255411 L18.6580087,3.03030303 L20.2164502,3.03030303 C20.5745022,3.03030303 20.8658009,3.32160173 20.8658009,3.67965368 L20.8658009,6.23376623 L1.2987013,6.23376623 L1.2987013,3.67965368 Z M20.2164502,18.7012987 L1.94805195,18.7012987 C1.59,18.7012987 1.2987013,18.41 1.2987013,18.0519481 L1.2987013,7.53246753 L20.8658009,7.53246753 L20.8658009,18.0519481 C20.8658009,18.41 20.5745022,18.7012987 20.2164502,18.7012987 Z" id="Shape"></path>
            </g>
        </g>
    </g>
</svg>