<?xml version="1.0" encoding="UTF-8"?>
<svg width="49px" height="60px" viewBox="0 0 49 60" version="1.1" xmlns="http://www.w3.org/2000/svg" xmlns:xlink="http://www.w3.org/1999/xlink">
    <title>Group 4</title>
    <g id="Općina-Tinjan-Web" stroke="none" stroke-width="1" fill="none" fill-rule="evenodd">
        <g id="01---Naslovnica" transform="translate(-578.000000, -645.000000)" fill="#39B872" fill-rule="nonzero">
            <g id="Group-3" transform="translate(578.500000, 645.000000)">
                <path d="M46.9243359,37.4867578 C47.4372656,37.4867578 47.8529297,37.0710937 47.8529297,36.5582813 L47.8529297,33.5832422 C47.8529297,31.6229297 46.7423438,29.9176172 45.1180078,29.0612109 L45.1180078,4.01132812 C45.1180078,3.49851562 44.7024609,3.08285156 44.1895313,3.08285156 L41.8600781,3.08285156 L41.8600781,0.928476562 C41.8600781,0.415664062 41.4445313,0 40.9316016,0 L11.1873047,0 C10.6744922,0 10.2588281,0.415664063 10.2588281,0.928476562 C10.2588281,1.44128906 10.6744922,1.85695312 11.1873047,1.85695312 L40.003125,1.85695312 L40.003125,28.47375 L24.1323047,28.47375 C22.7857031,28.47375 21.5974219,27.6638672 21.105,26.4105469 L20.2811719,24.3133594 C19.5076172,22.3444922 17.6410547,21.0721875 15.5255859,21.0721875 L5.62042969,21.0721875 L5.62042969,1.85695312 L8.09238281,1.85695312 C8.60519531,1.85695312 9.02085938,1.44128906 9.02085938,0.928476562 C9.02085938,0.415664063 8.60507813,0 8.09226562,0 L4.69195313,0 C4.17914062,0 3.76347656,0.415664063 3.76347656,0.928476562 L3.76347656,21.2533594 C1.59726563,21.845625 0,23.8300781 0,26.1815625 L0,55.2789844 C0,57.8821875 2.1178125,60 4.72101563,60 L43.1316797,60 C45.7348828,60 47.8529297,57.8821875 47.8529297,55.2788672 L47.8529297,39.6532031 C47.8529297,39.1403906 47.4373828,38.7247266 46.9244531,38.7247266 C46.4115234,38.7247266 45.9959766,39.1403906 45.9959766,39.6532031 L45.9959766,55.2788672 C45.9959766,56.8582031 44.7110156,58.1429297 43.1317969,58.1429297 L4.72101563,58.1429297 C3.14167969,58.1429297 1.85695313,56.8580859 1.85695313,55.2788672 L1.85695313,26.1815625 C1.85695313,24.3882422 3.31605469,22.9291406 5.109375,22.9291406 L15.5255859,22.9291406 C16.8721875,22.9291406 18.0604688,23.7390234 18.5528906,24.9923437 L19.3767188,27.0896484 C20.1503906,29.0585156 22.0169531,30.3308203 24.1323047,30.3308203 L42.7433203,30.3308203 C44.5366406,30.3308203 45.9957422,31.7899219 45.9957422,33.5832422 L45.9957422,36.5582813 C45.9958594,37.0709766 46.4115234,37.4867578 46.9243359,37.4867578 Z M43.2609375,28.4998828 C43.0906641,28.4826562 42.9180469,28.47375 42.7432031,28.47375 L41.8601953,28.47375 L41.8601953,4.93980469 L43.2609375,4.93980469 L43.2609375,28.4998828 L43.2609375,28.4998828 Z" id="Shape"></path>
                <path d="M16.7948437,14.0669531 C18.0489844,13.1667187 18.8682422,11.6971875 18.8682422,10.0391016 C18.8682422,7.30605469 16.6449609,5.08277344 13.9119141,5.08277344 C11.1791016,5.08277344 8.95558594,7.30605469 8.95558594,10.0391016 C8.95558594,11.6973047 9.77484375,13.1666016 11.0289844,14.0669531 C9.77496094,14.9670703 8.95558594,16.4366016 8.95558594,18.0948047 C8.95558594,18.6076172 9.37125,19.0232812 9.8840625,19.0232812 C10.396875,19.0232812 10.8125391,18.6076172 10.8125391,18.0948047 C10.8125391,16.3858594 12.2028516,14.9955469 13.9119141,14.9955469 C15.6209766,14.9955469 17.0111719,16.3859766 17.0111719,18.0948047 C17.0111719,18.6076172 17.4268359,19.0232812 17.9396484,19.0232812 C18.4524609,19.0232812 18.868125,18.6076172 18.868125,18.0948047 C18.8682422,16.4366016 18.0489844,14.9670703 16.7948437,14.0669531 Z M13.9120313,13.1383594 C12.2030859,13.1383594 10.8127734,11.7480469 10.8127734,10.0389844 C10.8127734,8.32992187 12.2030859,6.93972656 13.9120313,6.93972656 C15.6209766,6.93972656 17.0112891,8.33015625 17.0112891,10.0389844 C17.0112891,11.7479297 15.6208594,13.1383594 13.9120313,13.1383594 Z" id="Shape"></path>
                <path d="M36.1224609,6.23367188 L34.1510156,6.23367188 C33.6380859,6.23367188 33.2225391,6.64933594 33.2225391,7.16214844 C33.2225391,7.67496094 33.6380859,8.090625 34.1510156,8.090625 L36.1223438,8.090625 C36.6352734,8.090625 37.0508203,7.67496094 37.0508203,7.16214844 C37.0509375,6.64933594 36.6352734,6.23367188 36.1224609,6.23367188 Z" id="Path"></path>
                <path d="M31.0560937,6.23367188 L23.2334766,6.23367188 C22.7206641,6.23367188 22.305,6.64933594 22.305,7.16214844 C22.305,7.67496094 22.7206641,8.090625 23.2334766,8.090625 L31.0560937,8.090625 C31.5690234,8.090625 31.9845703,7.67496094 31.9845703,7.16214844 C31.9845703,6.64933594 31.5689063,6.23367188 31.0560937,6.23367188 Z" id="Path"></path>
                <path d="M36.1223438,24.4161328 L23.2334766,24.4161328 C22.7206641,24.4161328 22.305,24.8317969 22.305,25.3446094 C22.305,25.8574219 22.7206641,26.2730859 23.2334766,26.2730859 L36.1223438,26.2730859 C36.6352734,26.2730859 37.0508203,25.8574219 37.0508203,25.3446094 C37.0508203,24.8319141 36.6351563,24.4161328 36.1223438,24.4161328 Z" id="Path"></path>
                <path d="M36.1224609,19.8705469 L29.50875,19.8705469 C28.9958203,19.8705469 28.5802734,20.2862109 28.5802734,20.7990234 C28.5802734,21.3118359 28.9958203,21.7275 29.50875,21.7275 L36.1224609,21.7275 C36.6353906,21.7275 37.0509375,21.3118359 37.0509375,20.7990234 C37.0509375,20.2862109 36.6351562,19.8705469 36.1224609,19.8705469 Z" id="Path"></path>
                <path d="M26.4135938,19.8705469 L23.2334766,19.8705469 C22.7206641,19.8705469 22.305,20.2862109 22.305,20.7990234 C22.305,21.3118359 22.7206641,21.7275 23.2334766,21.7275 L26.4135938,21.7275 C26.9265234,21.7275 27.3420703,21.3118359 27.3420703,20.7990234 C27.3420703,20.2862109 26.9265234,19.8705469 26.4135938,19.8705469 Z" id="Path"></path>
                <path d="M36.1223438,10.7791406 L23.2334766,10.7791406 C22.7206641,10.7791406 22.305,11.1948047 22.305,11.7076172 C22.305,12.2204297 22.7206641,12.6360938 23.2334766,12.6360938 L36.1223438,12.6360938 C36.6352734,12.6360938 37.0508203,12.2204297 37.0508203,11.7076172 C37.0508203,11.1948047 36.6351563,10.7791406 36.1223438,10.7791406 Z" id="Path"></path>
                <path d="M36.1223438,15.3249609 L23.2334766,15.3249609 C22.7206641,15.3249609 22.305,15.740625 22.305,16.2534375 C22.305,16.76625 22.7206641,17.1819141 23.2334766,17.1819141 L36.1223438,17.1819141 C36.6352734,17.1819141 37.0508203,16.76625 37.0508203,16.2534375 C37.0508203,15.7407422 36.6351563,15.3249609 36.1223438,15.3249609 Z" id="Path"></path>
            </g>
        </g>
    </g>
</svg>