<?xml version="1.0" encoding="UTF-8"?>
<svg width="36px" height="36px" viewBox="0 0 36 36" version="1.1" xmlns="http://www.w3.org/2000/svg" xmlns:xlink="http://www.w3.org/1999/xlink">
    <title>Group</title>
    <g id="Općina-Tinjan-Web" stroke="none" stroke-width="1" fill="none" fill-rule="evenodd">
        <g id="03---Zaštita-okoliša" transform="translate(-1015.000000, -639.000000)">
            <g id="Group-5" transform="translate(1003.500000, 334.000000)">
                <g id="Group" transform="translate(11.500000, 305.000000)">
                    <circle id="Oval" fill="#3B5998" cx="18" cy="18" r="18"></circle>
                    <path d="M19.6666667,16.006006 L23,16.006006 L23,19.009009 L19.6666667,19.009009 L19.6666667,26 L16.3333333,26 L16.3333333,19.009009 L13,19.009009 L13,16.006006 L16.3333333,16.006006 L16.3333333,14.7327327 C16.3333333,14.0920901 16.4444433,13.4434474 16.6666667,12.7867868 C16.88889,12.1301261 17.1955533,11.6096126 17.5866667,11.2252252 C18.40445,10.4084054 19.43555,10 20.68,10 L23,10 L23,13.003003 L20.68,13.003003 C20.3955533,13.003003 20.1555567,13.0870871 19.96,13.2552553 C19.7644433,13.4234234 19.6666667,13.6356336 19.6666667,13.8918919 L19.6666667,16.006006 Z" id="Facebook" fill="#FFFFFF"></path>
                </g>
            </g>
        </g>
    </g>
</svg>