<?xml version="1.0" encoding="UTF-8"?>
<svg width="37px" height="36px" viewBox="0 0 37 36" version="1.1" xmlns="http://www.w3.org/2000/svg" xmlns:xlink="http://www.w3.org/1999/xlink">
    <title>Group</title>
    <g id="Symbols" stroke="none" stroke-width="1" fill="none" fill-rule="evenodd">
        <g id="Footer" transform="translate(-1153.000000, -24.000000)">
            <g id="Group" transform="translate(1153.500000, 24.000000)">
                <circle id="Oval" fill="#FFFFFF" cx="18" cy="18" r="18"></circle>
                <g id="Facebook-2" transform="translate(13.000000, 10.000000)" fill="#132244">
                    <path d="M6.66666667,6.00600601 L10,6.00600601 L10,9.00900901 L6.66666667,9.00900901 L6.66666667,16 L3.33333333,16 L3.33333333,9.00900901 L0,9.00900901 L0,6.00600601 L3.33333333,6.00600601 L3.33333333,4.73273273 C3.33333333,4.09209009 3.44444333,3.44344745 3.66666667,2.78678679 C3.88889,2.13012613 4.19555333,1.60961261 4.58666667,1.22522523 C5.40445,0.408405405 6.43555,0 7.68,0 L10,0 L10,3.003003 L7.68,3.003003 C7.39555333,3.003003 7.15555667,3.08708709 6.96,3.25525526 C6.76444333,3.42342342 6.66666667,3.63563363 6.66666667,3.89189189 L6.66666667,6.00600601 Z" id="Facebook"></path>
                </g>
            </g>
        </g>
    </g>
</svg>