<?xml version="1.0" encoding="UTF-8"?>
<svg width="60px" height="60px" viewBox="0 0 60 60" version="1.1" xmlns="http://www.w3.org/2000/svg" xmlns:xlink="http://www.w3.org/1999/xlink">
    <title>Shape 2</title>
    <g id="Općina-Tinjan-Web" stroke="none" stroke-width="1" fill="none" fill-rule="evenodd">
        <g id="01---Naslovnica" transform="translate(-182.000000, -645.000000)" fill="#39B872" fill-rule="nonzero">
            <g id="Shape-2" transform="translate(182.000000, 645.000000)">
                <path d="M53.3717383,6.62540849 C53.0286133,6.28204912 52.4720899,6.28216631 52.1288477,6.62540849 C51.7856055,6.96865068 51.7856055,7.52517412 52.1289649,7.86829912 C56.0713867,11.8104866 58.2425196,17.0519319 58.2425196,22.6268929 C58.2425196,28.2018538 56.0713867,33.4432991 52.1289649,37.3854866 C43.9904102,45.5233382 30.7482227,45.5233382 22.609668,37.3854866 C18.6932617,33.4694319 16.4961133,28.2248226 16.4961133,22.6268929 C16.4961133,17.0518147 18.6672461,11.8104866 22.609668,7.86829912 C29.6650586,0.813377243 40.7777149,-0.261466507 49.0328711,5.31279131 C49.4350586,5.58419756 49.9815039,5.47849443 50.2531446,5.07618974 C50.524668,4.67388506 50.4188477,4.12755693 50.016543,3.85591631 C41.065293,-2.18826338 29.0161914,-1.02365401 21.3667774,6.62540849 C17.0922461,10.8995882 14.7383008,16.5823616 14.7383008,22.6270101 C14.7383008,27.2553304 16.1199414,31.6708382 18.6856446,35.4050179 L15.9856446,38.1050179 C14.8635742,37.7424397 13.5816602,38.0050569 12.6923242,38.8943929 L8.93001956,42.6564632 C8.58666018,42.9997054 8.58666018,43.5562288 8.92990237,43.899471 C9.27314456,44.2427132 9.82966799,44.2427132 10.172793,43.899471 L13.9350977,40.1372835 C14.5137696,39.558846 15.4549024,39.558846 16.0334571,40.1372835 L19.8611524,43.9648616 C20.4317383,44.5300569 20.434668,45.4957991 19.8611524,46.063221 L8.91138674,57.0122835 C7.27791018,58.6458772 4.61951174,58.6459944 2.98556643,57.0122835 C1.36287112,55.3898226 1.36462893,52.6929866 2.98556643,51.0861116 L7.26244143,46.809471 C7.60580081,46.4662288 7.60580081,45.9098226 7.26255862,45.5665804 C6.91919924,45.2233382 6.36267581,45.2233382 6.01966799,45.5665804 L1.74279299,49.843221 C-0.569902318,52.1546272 -0.591933568,55.9209163 1.74279299,58.2554085 C4.06193362,60.5743147 7.83525393,60.5741976 10.1542774,58.2554085 L21.104043,47.3062288 C21.9589258,46.4583772 22.2643164,45.1442366 21.8942383,44.008221 L24.5951758,41.3081038 C33.4781055,47.3836897 45.6186133,46.3811507 53.3717383,38.6286116 C57.6462696,34.3544319 60.0002149,28.6715413 60.0002149,22.6270101 C60.0002149,16.5824788 57.6462696,10.8995882 53.3717383,6.62540849 Z M20.8993164,42.5172444 L17.4791992,39.0972444 L19.7479492,36.8286116 C20.2524414,37.4521663 20.7916211,38.0535726 21.3667774,38.6286116 C21.9447461,39.2065804 22.5470899,39.7456429 23.1693555,40.2479085 L20.8993164,42.5172444 Z M37.3693164,18.3020882 C35.7566992,18.3020882 34.4447852,19.6140022 34.4447852,21.2266194 L34.4447852,31.0721272 C34.4447852,32.6847444 35.7566992,33.9966585 37.3693164,33.9966585 C38.9820508,33.9966585 40.2939649,32.6847444 40.2939649,31.0721272 L40.2939649,21.2266194 C40.2939649,19.6140022 38.9819336,18.3020882 37.3693164,18.3020882 Z M38.5361524,31.0720101 C38.5361524,31.7153694 38.0126758,32.2387288 37.3693164,32.2387288 C36.7259571,32.2387288 36.2025977,31.7153694 36.2025977,31.0720101 L36.2025977,21.2265022 C36.2025977,20.5831429 36.7259571,20.0597835 37.3693164,20.0597835 C38.0126758,20.0597835 38.5361524,20.5831429 38.5361524,21.2265022 L38.5361524,31.0720101 Z M25.4187696,10.6771663 C22.2266992,13.8691194 20.4686524,18.1129476 20.4686524,22.6270101 C20.4686524,27.1410726 22.2266992,31.3850179 25.4187696,34.576971 C32.0082227,41.1660726 42.730293,41.1659554 49.3197461,34.576971 C52.5118164,31.3851351 54.2698633,27.1411897 54.2698633,22.6271272 C54.2698633,18.1130647 52.5118164,13.8692366 49.3197461,10.6772835 C42.7304102,4.08806474 32.0084571,4.08806474 25.4187696,10.6771663 Z M48.0769727,33.333846 C42.1727149,39.2374007 32.565918,39.2375179 26.6616602,33.333846 C23.8016992,30.4738851 22.2264649,26.6715022 22.2264649,22.6268929 C22.2264649,18.5824007 23.8015821,14.7800179 26.6616602,11.9200569 C32.5661524,6.01603349 42.1727149,6.01626787 48.0769727,11.9200569 C50.9369336,14.7800179 52.512168,18.5824007 52.512168,22.6268929 C52.512168,26.6715022 50.9369336,30.4740022 48.0769727,33.333846 Z M37.3693164,11.2574788 C35.7566992,11.2574788 34.4447852,12.5693929 34.4447852,14.1820101 C34.4447852,15.7946272 35.7566992,17.1064241 37.3693164,17.1064241 C38.9820508,17.1064241 40.2939649,15.7945101 40.2939649,14.1818929 C40.2939649,12.5692757 38.9819336,11.2574788 37.3693164,11.2574788 Z M37.3693164,15.3486116 C36.7259571,15.3486116 36.2025977,14.8252522 36.2025977,14.1818929 C36.2025977,13.5385335 36.7259571,13.0151741 37.3693164,13.0151741 C38.0126758,13.0151741 38.5361524,13.5385335 38.5361524,14.1818929 C38.5361524,14.8252522 38.0126758,15.3486116 37.3693164,15.3486116 Z" id="Shape"></path>
            </g>
        </g>
    </g>
</svg>