<?xml version="1.0" encoding="UTF-8"?>
<svg width="37px" height="36px" viewBox="0 0 37 36" version="1.1" xmlns="http://www.w3.org/2000/svg" xmlns:xlink="http://www.w3.org/1999/xlink">
    <title>Group 2</title>
    <g id="Symbols" stroke="none" stroke-width="1" fill="none" fill-rule="evenodd">
        <g id="Footer" transform="translate(-1199.000000, -24.000000)">
            <g id="Group-2" transform="translate(1199.500000, 24.000000)">
                <circle id="Oval" fill="#FFFFFF" cx="18" cy="18" r="18"></circle>
                <g id="Group-7" transform="translate(8.000000, 8.000000)" fill="#132244" fill-rule="nonzero">
                    <path d="M19.9025341,5.86744639 C19.8557809,4.80704799 19.6843019,4.07803361 19.4386574,3.44633287 C19.1852461,2.77579801 18.7953825,2.17546904 18.2846004,1.67641326 C17.7855446,1.16959064 17.1812561,0.775767563 16.5184881,0.526315789 C15.8831323,0.280671306 15.1579252,0.109192242 14.0975268,0.0624390643 C13.0292093,0.0117263548 12.6900585,9.59232693e-14 9.98050682,9.59232693e-14 C7.27095517,9.59232693e-14 6.93180433,0.0117263548 5.86744639,0.0584795322 C4.80704799,0.10523271 4.07803361,0.276864016 3.44648511,0.522356257 C2.77579801,0.775767563 2.17546904,1.16563111 1.67641326,1.67641326 C1.16959064,2.17546904 0.775919805,2.77975754 0.526315789,3.44252558 C0.280671306,4.07803361 0.109192242,4.80308846 0.0624390643,5.86348686 C0.0117263548,6.93180433 -3.55271368e-15,7.27095517 -3.55271368e-15,9.98050682 C-3.55271368e-15,12.6900585 0.0117263548,13.0292093 0.0584795322,14.0935673 C0.10523271,15.1539657 0.276864016,15.88298 0.522508499,16.5146808 C0.775919805,17.1852156 1.16959064,17.7855446 1.67641326,18.2846004 C2.17546904,18.791423 2.77975754,19.1852461 3.44252558,19.4346979 C4.07803361,19.6803423 4.80308846,19.8518214 5.8636391,19.8985746 C6.9278448,19.94548 7.26714788,19.9570541 9.97669953,19.9570541 C12.6862512,19.9570541 13.025402,19.94548 14.08976,19.8985746 C15.1501584,19.8518214 15.8791727,19.6803423 16.5107212,19.4346979 C17.8519432,18.9161489 18.9123416,17.8557505 19.4308906,16.5146808 C19.6763828,15.8791727 19.8480141,15.1539657 19.8947673,14.0935673 C19.9415205,13.0292093 19.9532468,12.6900585 19.9532468,9.98050682 C19.9532468,7.27095517 19.9492873,6.93180433 19.9025341,5.86744639 Z M18.1053545,14.0155945 C18.0624086,14.9902534 17.8986964,15.5165692 17.7622441,15.8674464 C17.4269006,16.7368726 16.7368726,17.4269006 15.8674464,17.7622441 C15.5165692,17.8986964 14.9864461,18.0624086 14.0155945,18.1052023 C12.962963,18.1521077 12.6472648,18.1636818 9.98446635,18.1636818 C7.32166788,18.1636818 7.00201021,18.1521077 5.95318593,18.1052023 C4.97852706,18.0624086 4.45221127,17.8986964 4.10133407,17.7622441 C3.66867688,17.6023392 3.2748538,17.3489279 2.95519614,17.0175439 C2.62381212,16.6939267 2.37040082,16.3040631 2.21049587,15.8714059 C2.07404363,15.5205287 1.91033138,14.9902534 1.86753774,14.0195541 C1.82063232,12.9669225 1.80905821,12.6510721 1.80905821,9.98827365 C1.80905821,7.32547517 1.82063232,7.0058175 1.86753774,5.95714546 C1.91033138,4.98248659 2.07404363,4.4561708 2.21049587,4.10529361 C2.37040082,3.67248417 2.62381212,3.27881333 2.95915567,2.95900343 C3.28262062,2.62761942 3.67248417,2.37420811 4.10529361,2.2144554 C4.4561708,2.07800316 4.98644612,1.91429092 5.95714546,1.87134503 C7.00977704,1.82459185 7.32562741,1.8128655 9.98827365,1.8128655 C12.6550317,1.8128655 12.9707298,1.82459185 14.0195541,1.87134503 C14.9942129,1.91429092 15.5205287,2.07800316 15.8714059,2.2144554 C16.3040631,2.37420811 16.6978862,2.62761942 17.0175439,2.95900343 C17.3489279,3.28262062 17.6023392,3.67248417 17.7622441,4.10529361 C17.8986964,4.4561708 18.0624086,4.98629388 18.1053545,5.95714546 C18.1521077,7.00977704 18.163834,7.32547517 18.163834,9.98827365 C18.163834,12.6510721 18.1521077,12.962963 18.1053545,14.0155945 Z" id="Shape"></path>
                    <path d="M9.99802023,4.85380117 C7.16770222,4.85380117 4.87131458,7.15003657 4.87131458,9.98050682 C4.87131458,12.8109771 7.16770222,15.1072125 9.99802023,15.1072125 C12.8284905,15.1072125 15.1247259,12.8109771 15.1247259,9.98050682 C15.1247259,7.15003657 12.8284905,4.85380117 9.99802023,4.85380117 Z M9.99802023,13.3060733 C8.16185427,13.3060733 6.67245372,11.816825 6.67245372,9.98050682 C6.67245372,8.14418862 8.16185427,6.65494031 9.99802023,6.65494031 C11.8343384,6.65494031 13.3235867,8.14418862 13.3235867,9.98050682 C13.3235867,11.816825 11.8343384,13.3060733 9.99802023,13.3060733 L9.99802023,13.3060733 Z" id="Shape"></path>
                    <path d="M16.5244274,4.65110257 C16.5244274,5.31204312 15.9885173,5.84795322 15.3274245,5.84795322 C14.6664839,5.84795322 14.1305738,5.31204312 14.1305738,4.65110257 C14.1305738,3.99000975 14.6664839,3.45425193 15.3274245,3.45425193 C15.9885173,3.45425193 16.5244274,3.99000975 16.5244274,4.65110257 L16.5244274,4.65110257 Z" id="Path"></path>
                </g>
            </g>
        </g>
    </g>
</svg>