<?xml version="1.0" encoding="UTF-8"?>
<svg width="55px" height="60px" viewBox="0 0 55 60" version="1.1" xmlns="http://www.w3.org/2000/svg" xmlns:xlink="http://www.w3.org/1999/xlink">
    <title>Group 6</title>
    <g id="Općina-Tinjan-Web" stroke="none" stroke-width="1" fill="none" fill-rule="evenodd">
        <g id="01---Naslovnica" transform="translate(-380.000000, -645.000000)" fill="#39B872" fill-rule="nonzero">
            <g id="Group-6" transform="translate(380.000000, 645.000000)">
                <path d="M22.9129029,17.0338169 C22.4235534,17.0338169 22.0271302,17.4302401 22.0271302,17.9195895 L22.0271302,18.9088169 C22.0271302,19.3981662 22.4235534,19.7945895 22.9129029,19.7945895 C23.4022522,19.7945895 23.7986755,19.3981662 23.7986755,18.9088169 L23.7986755,17.9195895 C23.7986755,17.4302401 23.4022522,17.0338169 22.9129029,17.0338169 Z" id="Path"></path>
                <path d="M31.1357116,19.7945895 C31.6250611,19.7945895 32.0214844,19.3977085 32.0214844,18.9088169 L32.0214844,17.9195895 C32.0214844,17.4302401 31.6250611,17.0338169 31.1357116,17.0338169 C30.6463623,17.0338169 30.2499389,17.4302401 30.2499389,17.9195895 L30.2499389,18.9088169 C30.2499389,19.3977085 30.6463623,19.7945895 31.1357116,19.7945895 Z" id="Path"></path>
                <path d="M11.887207,41.3882175 L21.1962891,43.114902 C21.2512207,43.1249728 21.3052369,43.1300083 21.3587952,43.1300083 C21.777649,43.1300083 22.1498108,42.8320041 22.2285462,42.4053683 C22.31781,41.9247164 22.0001221,41.4623752 21.5194702,41.3731112 L12.2103881,39.6464267 C11.7297363,39.558536 11.2673951,39.8748508 11.1781311,40.3559604 C11.0888672,40.8370699 11.4065552,41.2989536 11.887207,41.3882175 L11.887207,41.3882175 Z" id="Path"></path>
                <path d="M11.887207,46.0564914 L21.1962891,47.783176 C21.2512207,47.7932468 21.3052369,47.7982821 21.3587952,47.7982821 C21.777649,47.7982821 22.1498108,47.5002781 22.2285462,47.0736422 C22.31781,46.5929904 22.0001221,46.1306492 21.5194702,46.0413852 L12.2103881,44.3147006 C11.7297363,44.2263523 11.2673951,44.5431246 11.1781311,45.0242343 C11.0888672,45.5053439 11.4065552,45.9672274 11.887207,46.0564914 Z" id="Path"></path>
                <path d="M21.5194702,50.7096591 L9.62539676,48.5050692 C9.14474484,48.4162631 8.68240359,48.7334933 8.59313965,49.214603 C8.5038757,49.6952548 8.82156375,50.1575962 9.30267328,50.2468601 L21.1967468,52.4514499 C21.2512207,52.4615207 21.3052369,52.4665561 21.3592529,52.4665561 C21.777649,52.4665561 22.1498108,52.1685519 22.2290039,51.7419162 C22.31781,51.2612644 22.0005798,50.798923 21.5194702,50.7096591 L21.5194702,50.7096591 Z" id="Path"></path>
                <path d="M46.5019226,30.4678074 C46.4126587,29.9866977 45.9498596,29.6690097 45.4696655,29.7587314 L33.0638122,32.0631137 C32.5831604,32.1523777 32.2654724,32.6147189 32.3547363,33.0958286 C32.4339294,33.5220066 32.8060912,33.8195529 33.2244873,33.8195529 C33.2780456,33.8195529 33.3325195,33.8149753 33.3874512,33.8044467 L45.7928467,31.5005222 C46.2739563,31.4112583 46.5911865,30.9489169 46.5019226,30.4678074 L46.5019226,30.4678074 Z" id="Path"></path>
                <path d="M43.401947,35.7137789 C43.312683,35.2331271 42.8503418,34.9154391 42.36969,35.004703 L33.0638122,36.7313876 C32.5831604,36.8206515 32.2654724,37.2825351 32.3547363,37.7636447 C32.4339294,38.1898227 32.8060913,38.4878269 33.2244873,38.4878269 C33.2780456,38.4878269 33.3325195,38.4827915 33.3869934,38.4727206 L42.6928711,36.7464938 C43.1739807,36.6572299 43.4912109,36.1948886 43.401947,35.7137789 L43.401947,35.7137789 Z" id="Path"></path>
                <path d="M41.8579102,39.7663608 L33.0638122,41.3996616 C32.5831604,41.4893833 32.2654724,41.9512668 32.3547363,42.4323764 C32.4339294,42.8585543 32.8060913,43.1561008 33.2244873,43.1561008 C33.2780456,43.1561008 33.3325195,43.1515231 33.3874512,43.1409946 L42.1815491,41.5076938 C42.6622009,41.4179721 42.9798889,40.9560886 42.890625,40.474979 C42.8009033,39.9943271 42.338562,39.6761813 41.8579102,39.7663608 L41.8579102,39.7663608 Z" id="Path"></path>
                <path d="M32.8005982,52.1502414 C33.0413818,52.3562351 33.3494568,52.4665561 33.6703491,52.4665561 C33.7440491,52.4665561 33.8182068,52.4606051 33.8928223,52.4487033 C33.8941956,52.4487033 33.8955689,52.4482456 33.8969421,52.4482456 L42.1568298,51.0955539 C42.8750611,50.9719578 43.4170533,50.3324618 43.4170533,49.6082797 L43.4170533,45.7104221 C43.4170533,45.3149142 43.2485963,44.9445835 42.9551696,44.6941867 C42.6594544,44.4424167 42.2621155,44.3339267 41.8629456,44.3980136 L33.6149597,45.7520786 C32.888031,45.867435 32.3400879,46.5064731 32.3400879,47.2379794 L32.3400879,51.1358371 C32.3400879,51.5304293 32.5076295,51.9007602 32.8005982,52.1502414 Z M34.1111755,47.4654879 L41.6459655,46.2286105 L41.6459655,49.3844332 L34.1111755,50.6181064 L34.1111755,47.4654879 Z" id="Shape"></path>
                <path d="M21.269989,31.8845858 L17.3062134,31.2139621 C16.8241882,31.1320224 16.3668823,31.4570346 16.2854004,31.9395175 C16.2039185,32.4215426 16.5284729,32.8788485 17.0109558,32.9603305 L20.7815552,33.598453 L20.7815552,37.0747104 L10.0804138,35.2610507 L10.0804138,31.7847934 L13.0041504,32.2796359 C13.4861755,32.3611179 13.9434814,32.0365634 14.0249634,31.5545383 C14.106903,31.0720554 13.7818909,30.6152072 13.2998658,30.5332675 L9.88540652,29.9551121 C9.48669434,29.8887362 9.08569336,29.9967685 8.78540039,30.2517429 C8.48281863,30.5080906 8.30932617,30.8889499 8.30932617,31.2968173 L8.30932617,35.4505649 C8.30932617,36.1976352 8.86138922,36.8526949 9.59152219,36.9749179 L20.9765625,38.903934 C21.0534668,38.9167514 21.1303711,38.9231601 21.2068177,38.9231601 C21.5258789,38.9231601 21.8339538,38.8132968 22.0765686,38.6073032 C22.3791504,38.3514133 22.5526429,37.9700962 22.5526429,37.5622287 L22.5526429,33.4084812 C22.5526429,32.6618686 22.0001221,32.006351 21.269989,31.8845858 L21.269989,31.8845858 Z" id="Path"></path>
                <path d="M50.6497193,35.4963413 L50.6497193,27.0039096 C50.6497193,26.0618319 50.2633666,25.1962008 49.5904541,24.6290317 C48.9161682,24.0604892 48.0386353,23.8348117 47.1185303,23.9927401 L37.2340393,25.6965366 C39.0463256,23.3317294 40.1147461,20.6474032 40.1147461,18.2977023 L40.1147461,11.6637912 C40.1147461,7.67392303 38.3514404,4.32446627 35.1498413,2.23385955 C31.1975098,-0.347012086 25.4626465,-0.729244664 20.8790589,1.28399991 C16.4547729,3.2262912 13.9173889,7.00970791 13.9173889,11.6637912 L13.9173889,18.2977023 C13.9173889,20.6469455 14.9844361,23.3303562 16.7948913,25.6933322 L6.92916867,23.9922824 C6.00997922,23.8348117 5.13244629,24.0604892 4.45816043,24.6285739 C3.78479004,25.1962008 3.39889523,26.0618319 3.39889523,27.0039096 L3.39889523,36.3271824 C1.44836426,36.8174472 0,38.5839572 0,40.6832614 L0,44.0537753 C0,46.1526218 1.44836426,47.9195895 3.39889523,48.4093967 L3.39889523,52.6267733 C3.39889523,54.4839206 4.81796262,56.1831394 6.6288757,56.4944187 L26.8721009,59.9871555 C26.8734741,59.9876132 26.8748474,59.9871555 26.875763,59.9876132 C26.9242859,59.995853 26.9732666,59.9999728 27.0227051,59.9999728 C27.0716858,59.9999728 27.1206666,59.995853 27.168274,59.9876132 C27.1701049,59.9876132 27.1719361,59.9876132 27.1733093,59.9871555 L36.6554261,58.3501926 C37.1374512,58.2668796 37.4606323,57.8086581 37.3773193,57.326633 C37.2940064,56.8446079 36.8362427,56.5223422 36.3542175,56.6047397 L27.9084778,58.062717 L27.9084778,29.1013827 L35.0440979,27.8713718 C35.0463867,27.870914 35.0482178,27.8704562 35.0500488,27.8699985 L47.4188232,25.738193 C47.8152466,25.6699862 48.180542,25.7574191 48.4487916,25.9830966 C48.7257386,26.2165561 48.8786316,26.5791049 48.8786316,27.0039096 L48.8786316,35.4084506 L48.1860352,35.4084506 C46.5783691,35.4084506 45.2705384,36.7158237 45.2705384,38.3225741 L45.2705384,44.8438755 C45.2705384,46.4506259 46.5783691,47.7579989 48.1860352,47.7579989 L48.8786316,47.7579989 L48.8786316,52.6263156 C48.8786316,53.6127964 48.0729675,54.5846285 47.1185303,54.748508 L40.9556579,55.8109774 C40.4736328,55.8942905 40.1504517,56.3520542 40.2333069,56.8340793 C40.3079224,57.2652926 40.6819153,57.5697055 41.1053467,57.5697055 C41.1552429,57.5697055 41.205597,57.5655856 41.2568665,57.5564304 L47.419281,56.4944187 C49.2311096,56.1831394 50.650177,54.4839206 50.650177,52.6263156 L50.650177,47.6701083 C52.7050781,47.258121 54.2582702,45.4417147 54.2582702,43.2696262 L54.2582702,39.8995699 C54.2582702,37.7261081 52.7050781,35.9087863 50.6497193,35.4963413 Z M21.5913391,2.90585662 C25.6498718,1.12332495 30.7095337,1.44925268 34.1812134,3.71655612 C35.9889221,4.89712854 38.1266784,7.11545135 38.3280945,11.0545077 C30.8935547,13.7621799 27.8063965,12.5930515 24.8181152,11.4605441 C23.1239319,10.8187594 21.3917542,10.1623264 18.9999389,10.1623264 C18.0363464,10.1623264 16.9647217,10.2689853 15.7466126,10.5257906 C16.2249756,5.94906952 19.5492553,3.80215784 21.5913391,2.90585662 Z M15.6884766,18.2977023 L15.6884766,12.3545565 C19.6929932,11.41431 21.882019,12.2419467 24.1909791,13.1167331 C25.930481,13.7759128 27.7954102,14.4826999 30.4843139,14.4826999 C32.5263977,14.4826999 35.0454713,14.0730014 38.3432006,12.9272189 L38.3432006,18.2977023 C38.3432006,20.7911411 36.8609619,23.7881199 34.460907,26.1744419 L27.0227051,27.4566379 L19.5680237,26.1712375 C17.1697998,23.7872043 15.6884766,20.7911411 15.6884766,18.2977023 Z M1.77108762,44.0533176 L1.77108762,40.6832614 C1.77108762,39.1831698 2.99240109,37.9627719 4.49386594,37.9627719 L6.06857297,37.9627719 C6.70120242,37.9627719 7.21618652,38.4772983 7.21618652,39.1094699 L7.21618652,45.627109 C7.21618652,46.2592807 6.70166016,46.7738071 6.06857297,46.7738071 L4.49386594,46.7738071 C2.99240109,46.7738071 1.77108762,45.5534091 1.77108762,44.0533176 Z M5.16998297,52.6267733 L5.16998297,48.5448947 L6.06857297,48.5448947 C7.67807004,48.5448947 8.98727414,47.2361483 8.98727414,45.627109 L8.98727414,39.1094699 C8.98727414,37.5008883 7.67807004,36.1921421 6.06857297,36.1921421 L5.16998297,36.1921421 L5.16998297,27.0039096 C5.16998297,26.5791049 5.32241824,26.2170139 5.59982297,25.9830966 C5.86807254,25.7574191 6.23336789,25.6704441 6.62933344,25.738193 L26.1369323,29.1013827 L26.1369323,58.0631747 L6.92962641,54.748508 C5.97564703,54.5846285 5.16998297,53.6127964 5.16998297,52.6267733 Z M52.4867249,43.2700839 C52.4867249,44.7678866 51.2654114,45.9869113 49.7644043,45.9869113 L48.1860352,45.9869113 C47.5552369,45.9869113 47.041626,45.474216 47.041626,44.8438755 L47.041626,38.3225741 C47.041626,37.6922336 47.5552369,37.1795383 48.1860352,37.1795383 L49.7644043,37.1795383 C51.2654114,37.1795383 52.4867249,38.3999363 52.4867249,39.8995699 L52.4867249,43.2700839 Z" id="Shape"></path>
            </g>
        </g>
    </g>
</svg>