<?xml version="1.0" encoding="UTF-8"?>
<svg width="49px" height="23px" viewBox="0 0 49 23" version="1.1" xmlns="http://www.w3.org/2000/svg" xmlns:xlink="http://www.w3.org/1999/xlink">
    <title>Group</title>
    <g id="Općina-Tinjan-Web" stroke="none" stroke-width="1" fill="none" fill-rule="evenodd">
        <g id="03---Zaštita-okoliša" transform="translate(-145.000000, -982.000000)">
            <g id="Group-10" transform="translate(115.000000, 824.000000)">
                <g id="Group" transform="translate(30.000000, 158.000000)">
                    <rect id="Rectangle" fill="#E2574C" x="0" y="0" width="49" height="23" rx="2"></rect>
                    <path d="M12.572,17.1 L12.572,13.212 L14.556,13.212 C15.3986667,13.212 16.1133333,13.08 16.7,12.816 C17.2866667,12.552 17.732,12.1466667 18.036,11.6 C18.34,11.0533333 18.492,10.3586667 18.492,9.516 C18.492,8.684 18.3386667,8.00133333 18.032,7.468 C17.7253333,6.93466667 17.276,6.54 16.684,6.284 C16.092,6.028 15.3666667,5.9 14.508,5.9 L14.508,5.9 L10.524,5.9 L10.524,17.1 L12.572,17.1 Z M14.316,11.5 L12.572,11.5 L12.572,7.612 L14.268,7.612 C14.988,7.612 15.5253333,7.76666667 15.88,8.076 C16.2346667,8.38533333 16.412,8.876 16.412,9.548 C16.412,10.22 16.2373333,10.7133333 15.888,11.028 C15.5386667,11.3426667 15.0146667,11.5 14.316,11.5 L14.316,11.5 Z M24.252,17.1 C25.3186667,17.1 26.268,16.8773333 27.1,16.432 C27.932,15.9866667 28.5853333,15.3466667 29.06,14.512 C29.5346667,13.6773333 29.772,12.6733333 29.772,11.5 C29.772,10.3266667 29.5346667,9.32266667 29.06,8.488 C28.5853333,7.65333333 27.932,7.01333333 27.1,6.568 C26.268,6.12266667 25.3186667,5.9 24.252,5.9 L24.252,5.9 L20.06,5.9 L20.06,17.1 L24.252,17.1 Z M24.252,15.276 L22.108,15.276 L22.108,7.724 L24.252,7.724 C24.9773333,7.724 25.5826667,7.876 26.068,8.18 C26.5533333,8.484 26.9186667,8.91866667 27.164,9.484 C27.4093333,10.0493333 27.532,10.7213333 27.532,11.5 C27.532,12.2786667 27.4093333,12.9506667 27.164,13.516 C26.9186667,14.0813333 26.5533333,14.516 26.068,14.82 C25.5826667,15.124 24.9773333,15.276 24.252,15.276 L24.252,15.276 Z M33.628,17.1 L33.628,12.252 L37.372,12.252 L37.372,10.268 L33.628,10.268 L33.628,7.884 L38.476,7.884 L38.476,5.9 L31.58,5.9 L31.58,17.1 L33.628,17.1 Z" id="PDF" fill="#FFFFFF" fill-rule="nonzero"></path>
                </g>
            </g>
        </g>
    </g>
</svg>