<?xml version="1.0" encoding="UTF-8"?>
<svg width="61px" height="60px" viewBox="0 0 61 60" version="1.1" xmlns="http://www.w3.org/2000/svg" xmlns:xlink="http://www.w3.org/1999/xlink">
    <title>Group 8</title>
    <g id="Općina-Tinjan-Web" stroke="none" stroke-width="1" fill="none" fill-rule="evenodd">
        <g id="01---Naslovnica" transform="translate(-767.000000, -645.000000)" fill="#39B872" fill-rule="nonzero">
            <g id="Group-8" transform="translate(767.000000, 645.000000)">
                <path d="M19.9968641,41.217542 C22.5071022,44.7568277 25.0132927,47.9223039 26.6742451,49.9611134 C26.9160308,50.2577801 27.1425784,50.5330182 27.3619832,50.7981372 L22.3497213,50.7981372 C21.7886499,50.7981372 21.333888,51.2528991 21.333888,51.8139706 C21.333888,52.375042 21.7886499,52.8298039 22.3497213,52.8298039 L38.6035308,52.8298039 C39.1646022,52.8298039 39.6193641,52.375042 39.6193641,51.8139706 C39.6193641,51.2528991 39.1646022,50.7981372 38.6035308,50.7981372 L33.5912689,50.7981372 C33.8106737,50.5330182 34.0372213,50.257661 34.2800784,49.9611134 C35.9399594,47.9293277 38.4451975,44.7568277 40.956388,41.217542 C43.4479356,37.7764706 45.6905546,34.1619467 47.6672213,30.4015896 C49.741626,26.3278991 50.7941427,22.9461134 50.7941427,20.3495658 C50.8010308,14.9542086 48.6600784,9.77801817 44.844126,5.96373246 C44.5892451,5.69944674 44.211626,5.59325627 43.856388,5.68599436 C43.5011499,5.77873246 43.2235308,6.05587531 43.1303165,6.41099436 C43.0371022,6.76611341 43.1426975,7.1438515 43.406626,7.3990896 C46.841388,10.8328991 48.7684118,15.492542 48.7623403,20.3494467 C48.7623403,22.6230182 47.7850784,25.6949229 45.8569832,29.4790896 C43.9249594,33.1523039 41.7331737,36.6830182 39.2985308,40.0442086 C36.8218641,43.5377801 34.3461499,46.667661 32.7055546,48.6790896 C32.1600784,49.347542 31.6693641,49.9387325 31.2507927,50.4386134 C31.0554356,50.6617086 30.7732927,50.7895658 30.4767451,50.7895658 C30.1801975,50.7895658 29.8980546,50.6615896 29.7026975,50.4386134 C29.284126,49.9388515 28.7935308,49.347542 28.2479356,48.6790896 C26.6073403,46.6687325 24.131626,43.5387325 21.6549594,40.0442086 C19.2203165,36.6830182 17.0285308,33.1523039 15.096507,29.4790896 C13.166388,25.6949229 12.1911499,22.6230182 12.1911499,20.3494467 C12.1905546,12.9912325 16.5910308,6.34623246 23.3657927,3.47480388 C27.9179356,1.56599436 33.0460308,1.56599436 37.5981737,3.47480388 C37.9324594,3.61647055 38.3168641,3.56920865 38.6067451,3.35051817 C38.896626,3.13194674 39.0478165,2.77528008 39.0034118,2.41492293 C38.959007,2.05456579 38.7257927,1.74528008 38.391507,1.60361341 C28.046507,-2.75971992 16.1229356,2.08718484 11.756388,12.4307563 C10.6974594,14.9362325 10.1543641,17.6294467 10.1594473,20.3494467 C10.1594473,22.9459944 11.2119832,26.3278991 13.286388,30.4065896 C15.2628165,34.1652801 17.5055546,37.7781372 19.9968641,41.217542 Z" id="Path"></path>
                <path d="M30.476507,11.1792086 C31.0375784,11.1792086 31.4923403,10.7244467 31.4923403,10.1633753 C31.4923403,9.60230388 31.0375784,9.14754198 30.476507,9.14754198 C25.6300784,9.14754198 21.4584118,12.5709944 20.5128165,17.3243277 C19.5672213,22.077661 22.1111499,26.8369467 26.5886499,28.6917086 C31.0661499,30.5464706 36.2303165,28.9799229 38.9229356,24.9502801 C41.6155546,20.9206372 41.086626,15.550042 37.6597213,12.1230182 C37.4046022,11.8589706 37.0269832,11.7530182 36.6717451,11.8459944 C36.316626,11.9389706 36.0392451,12.2163515 35.9462689,12.5714706 C35.8532927,12.9267086 35.9592451,13.3043277 36.2232927,13.5594467 C38.9649594,16.3009944 39.3881737,20.5973039 37.2342451,23.8211134 C35.0803165,27.0449229 30.949007,28.2982563 27.3669832,26.8146848 C23.7849594,25.3311134 21.7497213,21.5237325 22.5059118,17.7209944 C23.2621022,13.9182563 26.5993641,11.1793277 30.476507,11.1792086 Z" id="Path"></path>
                <path d="M60.5697213,55.4418277 L54.3221022,44.2671848 C53.7572213,43.2743277 52.7001975,42.6640896 51.5579356,42.6711641 L44.3178165,42.6711641 C43.7567451,42.6711641 43.3019832,43.1259944 43.3019832,43.6870658 C43.3019832,44.2481372 43.7567451,44.7028991 44.3178165,44.7028991 L51.5579356,44.7028991 C51.9646022,44.695042 52.344007,44.9070658 52.5504356,45.257542 L58.7960308,56.4321848 C58.9661499,56.7228991 58.9625784,57.0834944 58.7868641,57.3708753 C58.5793641,57.7137325 58.204126,57.9190896 57.8035308,57.9093277 L3.14960224,57.9093277 C2.74936414,57.9188515 2.37460224,57.7133753 2.16722129,57.3708753 C1.991507,57.0834944 1.98805462,56.7228991 2.15805462,56.4321848 L8.40364986,45.257542 C8.60972129,44.9071848 8.9887689,44.695161 9.39507843,44.7028991 L16.6351975,44.7028991 C17.1962689,44.7028991 17.6510308,44.2481372 17.6510308,43.6870658 C17.6510308,43.1259944 17.1962689,42.6711641 16.6351975,42.6711641 L9.39519748,42.6711641 C8.25234033,42.6637325 7.19448319,43.2739706 6.629007,44.2671848 L0.382340333,55.4418277 C-0.138493,56.3618277 -0.126469191,57.4903991 0.413887952,58.3990896 C0.983173666,59.3667086 2.02710224,59.955161 3.14960224,59.9412325 L57.8035308,59.9412325 C58.9256737,59.9548039 59.9692451,59.3664706 60.5382927,58.3990896 C61.0786499,57.4902801 61.0906737,56.3618277 60.5697213,55.4418277 Z" id="Path"></path>
                <path d="M49.7781737,47.7506372 L45.7147213,47.7506372 C45.514126,47.7509944 45.3180546,47.8102801 45.1509118,47.9213515 L42.1032927,49.9531372 C41.636507,50.2645658 41.5105546,50.8953991 41.8218641,51.3621848 C42.1332927,51.8289706 42.764126,51.9549229 43.2309118,51.6436134 L46.0194832,49.782542 L49.7781737,49.782542 C50.3392451,49.782542 50.794007,49.327661 50.794007,48.7667086 C50.794007,48.2053991 50.3392451,47.7506372 49.7781737,47.7506372 Z" id="Path"></path>
                <path d="M43.6829356,54.8617086 C43.6829356,55.4227801 44.1376975,55.877542 44.6987689,55.877542 L52.8257927,55.877542 C53.3868641,55.877542 53.841626,55.4227801 53.841626,54.8617086 C53.841626,54.3006372 53.3868641,53.8458753 52.8257927,53.8458753 L44.6987689,53.8458753 C44.1376975,53.8458753 43.6829356,54.3006372 43.6829356,54.8617086 Z" id="Path"></path>
                <path d="M18.2860308,51.8140905 C18.733888,51.8146848 19.1292451,51.5218277 19.2593641,51.0932563 C19.3894832,50.6646848 19.2235308,50.2014706 18.8509118,49.9530182 L15.8032927,47.9212325 C15.6359118,47.810042 15.4393641,47.7506372 15.2384118,47.7505182 L11.1749594,47.7505182 C10.613888,47.7505182 10.159126,48.2053991 10.159126,48.7663515 C10.159126,49.3274229 10.614007,49.7821848 11.1749594,49.7821848 L14.9336499,49.7821848 L17.7253165,51.6432563 C17.891388,51.7542086 18.086507,51.8136134 18.2860308,51.8140905 Z" id="Path"></path>
                <path d="M8.12734033,53.8458753 C7.5662689,53.8458753 7.111507,54.3006372 7.111507,54.8617086 C7.111507,55.4227801 7.5662689,55.877542 8.12734033,55.877542 L16.2543641,55.877542 C16.8154356,55.877542 17.2701975,55.4227801 17.2701975,54.8617086 C17.2701975,54.3006372 16.8154356,53.8458753 16.2543641,53.8458753 L8.12734033,53.8458753 Z" id="Path"></path>
            </g>
        </g>
    </g>
</svg>