<?xml version="1.0" encoding="UTF-8"?>
<svg width="36px" height="36px" viewBox="0 0 36 36" version="1.1" xmlns="http://www.w3.org/2000/svg" xmlns:xlink="http://www.w3.org/1999/xlink">
    <title>Group 12</title>
    <g id="Općina-Tinjan-Web" stroke="none" stroke-width="1" fill="none" fill-rule="evenodd">
        <g id="03---Zaštita-okoliša" transform="translate(-1107.000000, -639.000000)">
            <g id="Group-5" transform="translate(1003.500000, 334.000000)">
                <g id="Group-8" transform="translate(11.500000, 305.000000)">
                    <g id="Group-12" transform="translate(92.000000, 0.000000)">
                        <circle id="Oval" fill="#39B872" cx="18" cy="18" r="18"></circle>
                        <g id="Path-3" transform="translate(11.437500, 11.000000)" fill="#FFFFFF" fill-rule="nonzero">
                            <path d="M10.6640625,9.078125 C9.85356641,9.078125 9.13934766,9.47682422 8.69074609,10.0831445 L4.81222656,8.09714063 C4.87662109,7.87765234 4.921875,7.65017969 4.921875,7.41015625 C4.921875,7.08460156 4.85512891,6.77509766 4.73982031,6.49042188 L8.79886328,4.04785937 C9.25058203,4.578 9.91454297,4.921875 10.6640625,4.921875 C12.0211055,4.921875 13.125,3.81798047 13.125,2.4609375 C13.125,1.10389453 12.0211055,0 10.6640625,0 C9.30701953,0 8.203125,1.10389453 8.203125,2.4609375 C8.203125,2.77366797 8.26751953,3.07032031 8.37435156,3.34572656 L4.30322266,5.79545312 C3.85188672,5.2810625 3.19749609,4.94921875 2.4609375,4.94921875 C1.10389453,4.94921875 0,6.05311328 0,7.41015625 C0,8.76719922 1.10389453,9.87109375 2.4609375,9.87109375 C3.28480469,9.87109375 4.01108203,9.46069141 4.45798828,8.83733594 L8.32373828,10.8168867 C8.25253516,11.0467383 8.203125,11.2861328 8.203125,11.5390625 C8.203125,12.8961055 9.30701953,14 10.6640625,14 C12.0211055,14 13.125,12.8961055 13.125,11.5390625 C13.125,10.1820195 12.0211055,9.078125 10.6640625,9.078125 Z" id="Path"></path>
                        </g>
                    </g>
                </g>
            </g>
        </g>
    </g>
</svg>