<?xml version="1.0" encoding="UTF-8"?>
<svg width="36px" height="36px" viewBox="0 0 36 36" version="1.1" xmlns="http://www.w3.org/2000/svg" xmlns:xlink="http://www.w3.org/1999/xlink">
    <title>Group 11</title>
    <g id="Općina-Tinjan-Web" stroke="none" stroke-width="1" fill="none" fill-rule="evenodd">
        <g id="03---Zaštita-okoliša" transform="translate(-1061.000000, -639.000000)">
            <g id="Group-5" transform="translate(1003.500000, 334.000000)">
                <g id="Group-8" transform="translate(11.500000, 305.000000)">
                    <g id="Group-11" transform="translate(46.000000, 0.000000)">
                        <circle id="Oval" fill="#18A6F0" cx="18" cy="18" r="18"></circle>
                        <path d="M26.5,12.6826923 C25.8580694,12.9743597 25.1940132,13.1538462 24.5078125,13.2211538 C25.2382855,12.7724345 25.7473951,12.1217985 26.0351562,11.2692308 C25.3489555,11.6955157 24.5963591,11.9871788 23.7773438,12.1442308 C23.1354131,11.3814074 22.2942765,11 21.2539062,11 C20.3020784,11 19.4886093,11.3477535 18.8134755,12.0432692 C18.1383439,12.7387849 17.8007812,13.5689052 17.8007812,14.5336538 C17.8007812,14.8926289 17.8229174,15.1618575 17.8671875,15.3413462 C14.9231615,15.2067308 12.532562,13.9727686 10.6953125,11.6394231 C10.385415,12.1105791 10.2304688,12.7051246 10.2304688,13.4230769 C10.2304688,14.7019295 10.7395782,15.6778803 11.7578125,16.3509615 C11.1158823,16.3060905 10.595705,16.1602578 10.1972656,15.9134615 L10.1972656,15.9807692 C10.1972656,16.8333369 10.4628879,17.5849323 10.9941406,18.2355769 C11.5253934,18.8862215 12.1894489,19.2900634 12.9863281,19.4471154 C12.7871094,19.5144231 12.4772164,19.5480769 12.0566406,19.5480769 C11.7467434,19.5480769 11.5253913,19.5368597 11.3925781,19.5144231 C11.6139334,20.2099388 12.0234354,20.7876585 12.6210938,21.2475951 C13.2187521,21.7075338 13.8938774,21.9487172 14.6464844,21.9711538 C13.3847593,22.9583382 11.9459706,23.4519231 10.3300781,23.4519231 C9.9537742,23.4519231 9.67708422,23.4407052 9.5,23.4182692 C11.1601645,24.4727617 12.9420474,25 14.8457031,25 C16.3730554,25 17.7841723,24.6971184 19.0791005,24.0913462 C20.3740309,23.4855739 21.4199176,22.6947169 22.2167969,21.7187489 C23.0136761,20.7427831 23.6334621,19.6714794 24.0761719,18.5048077 C24.5188816,17.338136 24.7402344,16.1602622 24.7402344,14.9711538 L24.7402344,14.5 C25.4043011,14.0064074 25.9908819,13.4006446 26.5,12.6826923 Z" id="Tw" fill="#FFFFFF"></path>
                    </g>
                </g>
            </g>
        </g>
    </g>
</svg>