<?xml version="1.0" encoding="UTF-8"?>
<svg width="37px" height="36px" viewBox="0 0 37 36" version="1.1" xmlns="http://www.w3.org/2000/svg" xmlns:xlink="http://www.w3.org/1999/xlink">
    <title>Group 3</title>
    <g id="Symbols" stroke="none" stroke-width="1" fill="none" fill-rule="evenodd">
        <g id="Footer" transform="translate(-1245.000000, -24.000000)">
            <g id="Group-3" transform="translate(1245.500000, 24.000000)">
                <circle id="Oval" fill="#FFFFFF" cx="18" cy="18" r="18"></circle>
                <g id="youtube-2" transform="translate(6.500000, 9.500000)" fill="#132244" fill-rule="nonzero">
                    <path d="M22.5260237,2.51983075 C22.2609852,1.53449974 21.4841193,0.757774161 20.4989286,0.49245495 C18.6991097,8.70414851e-14 11.4996935,8.70414851e-14 11.4996935,8.70414851e-14 C11.4996935,8.70414851e-14 4.30055799,8.70414851e-14 2.50073904,0.47378431 C1.53449974,0.738822778 0.738682443,1.53464011 0.473643975,2.51983075 C0,4.31950933 0,8.05180688 0,8.05180688 C0,8.05180688 0,11.8029154 0.473643975,13.583783 C0.738963186,14.5689736 1.51554836,15.3456992 2.50087941,15.6110184 C4.31950933,16.1036138 11.4999742,16.1036138 11.4999742,16.1036138 C11.4999742,16.1036138 18.6991097,16.1036138 20.4989286,15.6298294 C21.4842597,15.3646506 22.2609852,14.587925 22.5263044,13.6027344 C22.9999047,11.8029154 22.9999047,8.07075826 22.9999047,8.07075826 C22.9999047,8.07075826 23.0187594,4.31950933 22.5260237,2.51983075 L22.5260237,2.51983075 Z M9.20755992,11.4998338 L9.20755992,4.60377996 L15.1942286,8.05180688 L9.20755992,11.4998338 Z" id="youtube"></path>
                </g>
            </g>
        </g>
    </g>
</svg>